<?xml version="1.0" encoding="UTF-8"?>
<svg width="638px" height="320px" viewBox="0 0 638 320" version="1.1" xmlns="http://www.w3.org/2000/svg" xmlns:xlink="http://www.w3.org/1999/xlink">
    <!-- Generator: Sketch 48.2 (47327) - http://www.bohemiancoding.com/sketch -->
    <title>Group 2</title>
    <desc>Created with Sketch.</desc>
    <defs></defs>
    <g id="Page-1" stroke="none" stroke-width="1" fill="none" fill-rule="evenodd">
        <g id="Group-2" transform="translate(0.000000, -1.000000)">
            <g id="001-bullet" opacity="0.803611866" transform="translate(531.000000, 51.000000)" fill-rule="nonzero">
                <rect id="Rectangle-path" fill="#FF9A00" x="10" y="4" width="17" height="30"></rect>
                <rect id="Rectangle-path" fill="#FF9A00" x="10" y="18" width="17" height="16"></rect>
                <g id="Group" fill="#FFB74D">
                    <rect id="Rectangle-path" x="19.8772023" y="0.144847059" width="51.9844162" height="35.7111529"></rect>
                    <rect id="Rectangle-path" x="0" y="0.144847059" width="14.9510289" height="35.7111529"></rect>
                </g>
                <g id="Group" transform="translate(0.000000, 18.000000)" fill="#FFB74D">
                    <rect id="Rectangle-path" x="0" y="0.140651163" width="14.9510289" height="17.7149302"></rect>
                    <rect id="Rectangle-path" x="19.8772023" y="0.140651163" width="51.9844162" height="17.7149302"></rect>
                </g>
                <path d="M107,18 L105.659336,19.8854114 C104.508379,21.5018442 103.202947,23.0326735 101.751795,24.4676526 C100.300643,25.9002834 98.7075232,27.237064 96.9768142,28.4690283 C90.052102,33.3949644 81.8157033,36 73.1581974,36 L66,36 L66,0 L73.1581974,0 C81.8157033,0 90.0518935,2.60503564 96.9768142,7.53097167 C100.436147,9.99276557 103.357423,12.8795882 105.659336,16.1145886 L106.952052,17.931688 L107,18 Z" id="Shape" fill="#FF9A00"></path>
                <path d="M107,18.0678419 L105.659336,19.9461471 C104.508379,21.5564876 103.202947,23.0815473 101.751795,24.5111179 C100.300643,25.9383492 98.7075232,27.2700914 96.9768142,28.4974125 C90.052102,33.4047827 81.8157033,36 73.1581974,36 L66,36 L66,18 L106.952052,18 L107,18.0678419 Z" id="Shape" fill="#FF9A00"></path>
            </g>
            <g id="002-gun" fill-rule="nonzero">
                <path d="M272.429,161.083 L240.205,161.083 C237.165,181.019 244.621,199.163 258.061,210.955 C260.877,213.435 265.421,210.555 264.429,206.939 C260.685,193.354 262.045,177.707 272.429,161.083 Z" id="Shape" fill="#57636E"></path>
                <g id="Group" transform="translate(80.000000, 0.000000)" fill="#B6C1CC">
                    <path d="M351.981,33.083 L351.981,12.219 C351.981,2.235 339.917,-2.757 332.861,4.299 L304.077,33.083 L127.981,33.083 C110.397,33.083 94.221,42.955 85.277,58.091 C74.525,76.299 59.629,89.515 47.981,99.995 C44.157,103.435 38.573,107.915 32.061,113.115 C82.701,113.147 111.981,145.003 111.981,176.987 L111.981,184.987 C111.981,224.747 144.221,256.987 183.981,256.987 C223.741,256.987 255.981,224.747 255.981,184.987 L255.981,176.987 L255.981,144.987 L255.981,97.083 L367.981,97.083 L367.981,33.083 L351.981,33.083 Z M231.981,184.987 C231.981,211.451 210.445,232.987 183.981,232.987 C159.645,232.987 139.709,214.731 136.605,191.227 C136.477,183.851 139.709,176.987 151.981,176.987 L215.981,176.987 L231.981,176.987 L231.981,184.987 Z" id="Shape"></path>
                    <path d="M68.781,53.947 C62.461,50.875 55.437,49.003 47.933,49.003 L16.125,49.003 C7.261,49.003 0.061,56.187 0.061,65.067 C0.061,73.947 7.261,81.131 16.125,81.131 L31.901,81.131 C35.469,81.131 38.605,82.523 41.261,84.507 C50.413,76.203 60.653,66.219 68.781,53.947 Z" id="Shape"></path>
                </g>
                <path d="M231.981,49.083 L319.981,49.083 L319.981,145.083 L231.981,145.083 C205.471,145.083 183.981,123.593 183.981,97.083 C183.981,70.573 205.471,49.083 231.981,49.083 Z" id="Shape" fill="#CED8E0"></path>
                <g id="Group" transform="translate(223.000000, 64.000000)" fill="#57636E">
                    <rect id="Rectangle-path" x="0.979" y="0.987" width="80" height="24"></rect>
                    <rect id="Rectangle-path" x="0.979" y="40.987" width="80" height="24"></rect>
                </g>
                <path d="M112.061,113.115 C106.237,117.771 99.501,123.163 92.381,129.099 C52.509,162.283 -1.427,214.474 0.029,275.402 C0.621,300.954 22.429,320.986 47.981,320.986 L127.981,320.986 C145.661,320.986 159.981,306.666 159.981,288.986 L159.981,208.986 C159.981,197.178 166.461,186.97 175.981,181.418 C180.701,178.666 186.125,176.986 191.981,176.986 C191.981,145.003 162.701,113.147 112.061,113.115 Z" id="Shape" fill="#643A20"></path>
                <path d="M112.061,113.115 C106.237,117.771 99.501,123.163 92.381,129.099 L112.061,129.115 C153.565,129.147 175.981,153.803 175.981,176.987 L175.981,181.419 C180.701,178.667 186.125,176.987 191.981,176.987 C191.981,145.003 162.701,113.147 112.061,113.115 Z" id="Shape" fill="#482C1B"></path>
                <path d="M127.901,97.115 C127.901,97.995 128.269,98.763 128.413,99.611 C138.861,90.219 151.645,78.443 161.885,63.083 C158.109,59.307 153.629,56.299 148.781,53.947 C140.669,66.219 130.413,76.203 121.261,84.491 C125.181,87.387 127.901,91.835 127.901,97.115 Z" id="Shape" fill="#8292A3"></path>
            </g>
            <path d="M478.5,56.5 L517.5,56.5" id="Line" stroke-opacity="0.3" stroke="#979797" stroke-width="4"></path>
            <path d="M498,80 L517,80" id="Line" stroke-opacity="0.3" stroke="#979797" stroke-width="4"></path>
            <path d="M491,69 L517,69" id="Line" stroke-opacity="0.3" stroke="#979797" stroke-width="4"></path>
        </g>
    </g>
</svg>